<?xml version="1.0" encoding="UTF-8" standalone="no"?>
<!DOCTYPE svg PUBLIC "-//W3C//DTD SVG 1.1//EN"
 "http://www.w3.org/Graphics/SVG/1.1/DTD/svg11.dtd">
<!-- Generated by graphviz version 2.43.0 (0)
 -->
<!-- Title: G Pages: 1 -->
<svg width="1590pt" height="931pt"
 viewBox="0.00 0.00 1590.16 930.77" xmlns="http://www.w3.org/2000/svg" xmlns:xlink="http://www.w3.org/1999/xlink">
<g id="graph0" class="graph" transform="scale(1 1) rotate(0) translate(36 894.77)">
<title>G</title>
<polygon fill="#f7f7f7" stroke="transparent" points="-36,36 -36,-894.77 1554.16,-894.77 1554.16,36 -36,36"/>
<!-- appmodelsmovie -->
<g id="node1" class="node">
<title>appmodelsmovie</title>
<polygon fill="none" stroke="black" points="987.77,-577.39 794.77,-577.39 794.77,-207.39 987.77,-207.39 987.77,-577.39"/>
<polygon fill="#d3d3d3" stroke="transparent" points="795.27,-540.39 795.27,-577.39 988.27,-577.39 988.27,-540.39 795.27,-540.39"/>
<polygon fill="none" stroke="black" points="795.27,-540.39 795.27,-577.39 988.27,-577.39 988.27,-540.39 795.27,-540.39"/>
<text text-anchor="start" x="871.27" y="-555.19" font-family="Helvetica Neue" font-size="14.00" fill="#333333">Movie</text>
<polygon fill="#ffffff" stroke="transparent" points="795.27,-503.39 795.27,-540.39 988.27,-540.39 988.27,-503.39 795.27,-503.39"/>
<polygon fill="none" stroke="black" points="795.27,-503.39 795.27,-540.39 988.27,-540.39 988.27,-503.39 795.27,-503.39"/>
<text text-anchor="start" x="806.27" y="-518.19" font-family="Helvetica Neue" font-size="14.00" fill="#333333">id (bigint)</text>
<polygon fill="#ffffff" stroke="transparent" points="795.27,-466.39 795.27,-503.39 988.27,-503.39 988.27,-466.39 795.27,-466.39"/>
<polygon fill="none" stroke="black" points="795.27,-466.39 795.27,-503.39 988.27,-503.39 988.27,-466.39 795.27,-466.39"/>
<text text-anchor="start" x="806.27" y="-481.19" font-family="Helvetica Neue" font-size="14.00" fill="#333333">title (text)</text>
<polygon fill="#ffffff" stroke="transparent" points="795.27,-429.39 795.27,-466.39 988.27,-466.39 988.27,-429.39 795.27,-429.39"/>
<polygon fill="none" stroke="black" points="795.27,-429.39 795.27,-466.39 988.27,-466.39 988.27,-429.39 795.27,-429.39"/>
<text text-anchor="start" x="806.27" y="-444.19" font-family="Helvetica Neue" font-size="14.00" fill="#333333">image_url (text)</text>
<polygon fill="#ffffff" stroke="transparent" points="795.27,-392.39 795.27,-429.39 988.27,-429.39 988.27,-392.39 795.27,-392.39"/>
<polygon fill="none" stroke="black" points="795.27,-392.39 795.27,-429.39 988.27,-429.39 988.27,-392.39 795.27,-392.39"/>
<text text-anchor="start" x="806.27" y="-407.19" font-family="Helvetica Neue" font-size="14.00" fill="#333333">published_year (integer)</text>
<polygon fill="#ffffff" stroke="transparent" points="795.27,-355.39 795.27,-392.39 988.27,-392.39 988.27,-355.39 795.27,-355.39"/>
<polygon fill="none" stroke="black" points="795.27,-355.39 795.27,-392.39 988.27,-392.39 988.27,-355.39 795.27,-355.39"/>
<text text-anchor="start" x="806.27" y="-370.19" font-family="Helvetica Neue" font-size="14.00" fill="#333333">is_showing (boolean)</text>
<polygon fill="#ffffff" stroke="transparent" points="795.27,-318.39 795.27,-355.39 988.27,-355.39 988.27,-318.39 795.27,-318.39"/>
<polygon fill="none" stroke="black" points="795.27,-318.39 795.27,-355.39 988.27,-355.39 988.27,-318.39 795.27,-318.39"/>
<text text-anchor="start" x="806.27" y="-333.19" font-family="Helvetica Neue" font-size="14.00" fill="#333333">description (text)</text>
<polygon fill="#ffffff" stroke="transparent" points="795.27,-281.39 795.27,-318.39 988.27,-318.39 988.27,-281.39 795.27,-281.39"/>
<polygon fill="none" stroke="black" points="795.27,-281.39 795.27,-318.39 988.27,-318.39 988.27,-281.39 795.27,-281.39"/>
<text text-anchor="start" x="806.27" y="-296.19" font-family="Helvetica Neue" font-size="14.00" fill="#333333">genre_id (bigint)</text>
<polygon fill="#ffffff" stroke="transparent" points="795.27,-244.39 795.27,-281.39 988.27,-281.39 988.27,-244.39 795.27,-244.39"/>
<polygon fill="none" stroke="black" points="795.27,-244.39 795.27,-281.39 988.27,-281.39 988.27,-244.39 795.27,-244.39"/>
<text text-anchor="start" x="806.27" y="-259.19" font-family="Helvetica Neue" font-size="14.00" fill="#333333">created_at (datetime)</text>
<polygon fill="#ffffff" stroke="transparent" points="795.27,-207.39 795.27,-244.39 988.27,-244.39 988.27,-207.39 795.27,-207.39"/>
<polygon fill="none" stroke="black" points="795.27,-207.39 795.27,-244.39 988.27,-244.39 988.27,-207.39 795.27,-207.39"/>
<text text-anchor="start" x="806.27" y="-222.19" font-family="Helvetica Neue" font-size="14.00" fill="#333333">updated_at (datetime)</text>
</g>
<!-- appmodelsgenre -->
<g id="node2" class="node">
<title>appmodelsgenre</title>
<polygon fill="none" stroke="black" points="1518.16,-484.89 1341.16,-484.89 1341.16,-299.89 1518.16,-299.89 1518.16,-484.89"/>
<polygon fill="#d3d3d3" stroke="transparent" points="1341.66,-447.39 1341.66,-484.39 1518.66,-484.39 1518.66,-447.39 1341.66,-447.39"/>
<polygon fill="none" stroke="black" points="1341.66,-447.39 1341.66,-484.39 1518.66,-484.39 1518.66,-447.39 1341.66,-447.39"/>
<text text-anchor="start" x="1409.16" y="-462.19" font-family="Helvetica Neue" font-size="14.00" fill="#333333">Genre</text>
<polygon fill="#ffffff" stroke="transparent" points="1341.66,-410.39 1341.66,-447.39 1518.66,-447.39 1518.66,-410.39 1341.66,-410.39"/>
<polygon fill="none" stroke="black" points="1341.66,-410.39 1341.66,-447.39 1518.66,-447.39 1518.66,-410.39 1341.66,-410.39"/>
<text text-anchor="start" x="1352.66" y="-425.19" font-family="Helvetica Neue" font-size="14.00" fill="#333333">id (bigint)</text>
<polygon fill="#ffffff" stroke="transparent" points="1341.66,-373.39 1341.66,-410.39 1518.66,-410.39 1518.66,-373.39 1341.66,-373.39"/>
<polygon fill="none" stroke="black" points="1341.66,-373.39 1341.66,-410.39 1518.66,-410.39 1518.66,-373.39 1341.66,-373.39"/>
<text text-anchor="start" x="1352.66" y="-388.19" font-family="Helvetica Neue" font-size="14.00" fill="#333333">name (text)</text>
<polygon fill="#ffffff" stroke="transparent" points="1341.66,-336.39 1341.66,-373.39 1518.66,-373.39 1518.66,-336.39 1341.66,-336.39"/>
<polygon fill="none" stroke="black" points="1341.66,-336.39 1341.66,-373.39 1518.66,-373.39 1518.66,-336.39 1341.66,-336.39"/>
<text text-anchor="start" x="1352.66" y="-351.19" font-family="Helvetica Neue" font-size="14.00" fill="#333333">created_at (datetime)</text>
<polygon fill="#ffffff" stroke="transparent" points="1341.66,-299.39 1341.66,-336.39 1518.66,-336.39 1518.66,-299.39 1341.66,-299.39"/>
<polygon fill="none" stroke="black" points="1341.66,-299.39 1341.66,-336.39 1518.66,-336.39 1518.66,-299.39 1341.66,-299.39"/>
<text text-anchor="start" x="1352.66" y="-314.19" font-family="Helvetica Neue" font-size="14.00" fill="#333333">updated_at (datetime)</text>
</g>
<!-- appmodelsmovie&#45;&gt;appmodelsgenre -->
<g id="edge1" class="edge">
<title>appmodelsmovie:genre_id&#45;&gt;appmodelsgenre:id</title>
<path fill="none" stroke="#f77f00" stroke-width="1.8" d="M1016.59,-309.8C1088.17,-336.13 1274.37,-404.63 1327.38,-424.13"/>
<polygon fill="#f77f00" stroke="#f77f00" stroke-width="1.8" points="1016.43,-309.74 992.93,-286.72 1002.35,-304.56 988.27,-299.39 988.27,-299.39 988.27,-299.39 1002.35,-304.56 983.61,-312.06 1016.43,-309.74 1016.43,-309.74"/>
<polygon fill="#f77f00" stroke="#f77f00" stroke-width="1.8" points="1344.02,-414.27 1333.66,-442.43 1328.03,-440.36 1338.39,-412.2 1344.02,-414.27"/>
<polyline fill="none" stroke="#f77f00" stroke-width="1.8" points="1341.66,-429.39 1327.58,-424.21 "/>
<text text-anchor="middle" x="1169.49" y="-370.77" font-family="Helvetica Neue" font-size="14.00"> </text>
<text text-anchor="middle" x="1136.99" y="-355.77" font-family="Helvetica Neue" font-size="14.00">BelongsTo</text>
<text text-anchor="middle" x="1136.99" y="-340.77" font-family="Helvetica Neue" font-size="14.00">genre</text>
</g>
<!-- appmodelsschedule -->
<g id="node3" class="node">
<title>appmodelsschedule</title>
<polygon fill="none" stroke="black" points="722.77,-540.39 545.77,-540.39 545.77,-244.39 722.77,-244.39 722.77,-540.39"/>
<polygon fill="#d3d3d3" stroke="transparent" points="546.27,-503.39 546.27,-540.39 723.27,-540.39 723.27,-503.39 546.27,-503.39"/>
<polygon fill="none" stroke="black" points="546.27,-503.39 546.27,-540.39 723.27,-540.39 723.27,-503.39 546.27,-503.39"/>
<text text-anchor="start" x="602.77" y="-518.19" font-family="Helvetica Neue" font-size="14.00" fill="#333333">Schedule</text>
<polygon fill="#ffffff" stroke="transparent" points="546.27,-466.39 546.27,-503.39 723.27,-503.39 723.27,-466.39 546.27,-466.39"/>
<polygon fill="none" stroke="black" points="546.27,-466.39 546.27,-503.39 723.27,-503.39 723.27,-466.39 546.27,-466.39"/>
<text text-anchor="start" x="557.27" y="-481.19" font-family="Helvetica Neue" font-size="14.00" fill="#333333">id (bigint)</text>
<polygon fill="#ffffff" stroke="transparent" points="546.27,-429.39 546.27,-466.39 723.27,-466.39 723.27,-429.39 546.27,-429.39"/>
<polygon fill="none" stroke="black" points="546.27,-429.39 546.27,-466.39 723.27,-466.39 723.27,-429.39 546.27,-429.39"/>
<text text-anchor="start" x="557.27" y="-444.19" font-family="Helvetica Neue" font-size="14.00" fill="#333333">movie_id (bigint)</text>
<polygon fill="#ffffff" stroke="transparent" points="546.27,-392.39 546.27,-429.39 723.27,-429.39 723.27,-392.39 546.27,-392.39"/>
<polygon fill="none" stroke="black" points="546.27,-392.39 546.27,-429.39 723.27,-429.39 723.27,-392.39 546.27,-392.39"/>
<text text-anchor="start" x="557.27" y="-407.19" font-family="Helvetica Neue" font-size="14.00" fill="#333333">start_time (datetime)</text>
<polygon fill="#ffffff" stroke="transparent" points="546.27,-355.39 546.27,-392.39 723.27,-392.39 723.27,-355.39 546.27,-355.39"/>
<polygon fill="none" stroke="black" points="546.27,-355.39 546.27,-392.39 723.27,-392.39 723.27,-355.39 546.27,-355.39"/>
<text text-anchor="start" x="557.27" y="-370.19" font-family="Helvetica Neue" font-size="14.00" fill="#333333">end_time (datetime)</text>
<polygon fill="#ffffff" stroke="transparent" points="546.27,-318.39 546.27,-355.39 723.27,-355.39 723.27,-318.39 546.27,-318.39"/>
<polygon fill="none" stroke="black" points="546.27,-318.39 546.27,-355.39 723.27,-355.39 723.27,-318.39 546.27,-318.39"/>
<text text-anchor="start" x="557.27" y="-333.19" font-family="Helvetica Neue" font-size="14.00" fill="#333333">screen_id (bigint)</text>
<polygon fill="#ffffff" stroke="transparent" points="546.27,-281.39 546.27,-318.39 723.27,-318.39 723.27,-281.39 546.27,-281.39"/>
<polygon fill="none" stroke="black" points="546.27,-281.39 546.27,-318.39 723.27,-318.39 723.27,-281.39 546.27,-281.39"/>
<text text-anchor="start" x="557.27" y="-296.19" font-family="Helvetica Neue" font-size="14.00" fill="#333333">created_at (datetime)</text>
<polygon fill="#ffffff" stroke="transparent" points="546.27,-244.39 546.27,-281.39 723.27,-281.39 723.27,-244.39 546.27,-244.39"/>
<polygon fill="none" stroke="black" points="546.27,-244.39 546.27,-281.39 723.27,-281.39 723.27,-244.39 546.27,-244.39"/>
<text text-anchor="start" x="557.27" y="-259.19" font-family="Helvetica Neue" font-size="14.00" fill="#333333">updated_at (datetime)</text>
</g>
<!-- appmodelsmovie&#45;&gt;appmodelsschedule -->
<g id="edge2" class="edge">
<title>appmodelsmovie:id&#45;&gt;appmodelsschedule:movie_id</title>
<path fill="none" stroke="#fcbf49" stroke-width="1.8" d="M795.27,-522.39C795.27,-522.39 765.72,-492.02 744.48,-470.19"/>
<polygon fill="#fcbf49" stroke="#fcbf49" stroke-width="1.8" points="744.19,-469.89 732.95,-438.97 733.73,-459.14 723.27,-448.39 723.27,-448.39 723.27,-448.39 733.73,-459.14 713.6,-457.8 744.19,-469.89 744.19,-469.89"/>
<text text-anchor="middle" x="767.38" y="-500.09" font-family="Helvetica Neue" font-size="14.00"> </text>
<text text-anchor="middle" x="752.38" y="-485.09" font-family="Helvetica Neue" font-size="14.00">HasMany</text>
<text text-anchor="middle" x="752.38" y="-470.09" font-family="Helvetica Neue" font-size="14.00">schedules</text>
</g>
<!-- appmodelsschedule&#45;&gt;appmodelsmovie -->
<g id="edge5" class="edge">
<title>appmodelsschedule:movie_id&#45;&gt;appmodelsmovie:id</title>
</g>
<!-- appmodelsscreen -->
<g id="node6" class="node">
<title>appmodelsscreen</title>
<polygon fill="none" stroke="black" points="441.39,-222 264.39,-222 264.39,0 441.39,0 441.39,-222"/>
<polygon fill="#d3d3d3" stroke="transparent" points="264.89,-185 264.89,-222 441.89,-222 441.89,-185 264.89,-185"/>
<polygon fill="none" stroke="black" points="264.89,-185 264.89,-222 441.89,-222 441.89,-185 264.89,-185"/>
<text text-anchor="start" x="329.39" y="-199.8" font-family="Helvetica Neue" font-size="14.00" fill="#333333">Screen</text>
<polygon fill="#ffffff" stroke="transparent" points="264.89,-148 264.89,-185 441.89,-185 441.89,-148 264.89,-148"/>
<polygon fill="none" stroke="black" points="264.89,-148 264.89,-185 441.89,-185 441.89,-148 264.89,-148"/>
<text text-anchor="start" x="275.89" y="-162.8" font-family="Helvetica Neue" font-size="14.00" fill="#333333">id (bigint)</text>
<polygon fill="#ffffff" stroke="transparent" points="264.89,-111 264.89,-148 441.89,-148 441.89,-111 264.89,-111"/>
<polygon fill="none" stroke="black" points="264.89,-111 264.89,-148 441.89,-148 441.89,-111 264.89,-111"/>
<text text-anchor="start" x="275.89" y="-125.8" font-family="Helvetica Neue" font-size="14.00" fill="#333333">name (string)</text>
<polygon fill="#ffffff" stroke="transparent" points="264.89,-74 264.89,-111 441.89,-111 441.89,-74 264.89,-74"/>
<polygon fill="none" stroke="black" points="264.89,-74 264.89,-111 441.89,-111 441.89,-74 264.89,-74"/>
<text text-anchor="start" x="275.89" y="-88.8" font-family="Helvetica Neue" font-size="14.00" fill="#333333">created_at (datetime)</text>
<polygon fill="#ffffff" stroke="transparent" points="264.89,-37 264.89,-74 441.89,-74 441.89,-37 264.89,-37"/>
<polygon fill="none" stroke="black" points="264.89,-37 264.89,-74 441.89,-74 441.89,-37 264.89,-37"/>
<text text-anchor="start" x="275.89" y="-51.8" font-family="Helvetica Neue" font-size="14.00" fill="#333333">updated_at (datetime)</text>
<polygon fill="#ffffff" stroke="transparent" points="264.89,0 264.89,-37 441.89,-37 441.89,0 264.89,0"/>
<polygon fill="none" stroke="black" points="264.89,0 264.89,-37 441.89,-37 441.89,0 264.89,0"/>
<text text-anchor="start" x="275.89" y="-14.8" font-family="Helvetica Neue" font-size="14.00" fill="#333333">deleted_at (datetime)</text>
</g>
<!-- appmodelsschedule&#45;&gt;appmodelsscreen -->
<g id="edge6" class="edge">
<title>appmodelsschedule:screen_id&#45;&gt;appmodelsscreen:id</title>
<path fill="none" stroke="#f77f00" stroke-width="1.8" d="M530.42,-310.66C507.83,-274.01 467.22,-208.11 449.98,-180.14"/>
<polygon fill="#f77f00" stroke="#f77f00" stroke-width="1.8" points="530.53,-310.85 534.78,-343.47 538.4,-323.62 546.27,-336.39 546.27,-336.39 546.27,-336.39 538.4,-323.62 557.76,-329.3 530.53,-310.85 530.53,-310.85"/>
<polygon fill="#f77f00" stroke="#f77f00" stroke-width="1.8" points="430.69,-177.42 456.23,-161.68 459.38,-166.79 433.84,-182.53 430.69,-177.42"/>
<polyline fill="none" stroke="#f77f00" stroke-width="1.8" points="441.89,-167 449.76,-179.77 "/>
<text text-anchor="middle" x="487.7" y="-249.2" font-family="Helvetica Neue" font-size="14.00"> </text>
<text text-anchor="middle" x="507.7" y="-234.2" font-family="Helvetica Neue" font-size="14.00">BelongsTo</text>
<text text-anchor="middle" x="507.7" y="-219.2" font-family="Helvetica Neue" font-size="14.00">screen</text>
</g>
<!-- appmodelsreservation -->
<g id="node4" class="node">
<title>appmodelsreservation</title>
<polygon fill="none" stroke="black" points="441.39,-858.77 264.39,-858.77 264.39,-488.77 441.39,-488.77 441.39,-858.77"/>
<polygon fill="#d3d3d3" stroke="transparent" points="264.89,-821.77 264.89,-858.77 441.89,-858.77 441.89,-821.77 264.89,-821.77"/>
<polygon fill="none" stroke="black" points="264.89,-821.77 264.89,-858.77 441.89,-858.77 441.89,-821.77 264.89,-821.77"/>
<text text-anchor="start" x="312.39" y="-836.57" font-family="Helvetica Neue" font-size="14.00" fill="#333333">Reservation</text>
<polygon fill="#ffffff" stroke="transparent" points="264.89,-784.77 264.89,-821.77 441.89,-821.77 441.89,-784.77 264.89,-784.77"/>
<polygon fill="none" stroke="black" points="264.89,-784.77 264.89,-821.77 441.89,-821.77 441.89,-784.77 264.89,-784.77"/>
<text text-anchor="start" x="275.89" y="-799.57" font-family="Helvetica Neue" font-size="14.00" fill="#333333">id (bigint)</text>
<polygon fill="#ffffff" stroke="transparent" points="264.89,-747.77 264.89,-784.77 441.89,-784.77 441.89,-747.77 264.89,-747.77"/>
<polygon fill="none" stroke="black" points="264.89,-747.77 264.89,-784.77 441.89,-784.77 441.89,-747.77 264.89,-747.77"/>
<text text-anchor="start" x="275.89" y="-762.57" font-family="Helvetica Neue" font-size="14.00" fill="#333333">date (date)</text>
<polygon fill="#ffffff" stroke="transparent" points="264.89,-710.77 264.89,-747.77 441.89,-747.77 441.89,-710.77 264.89,-710.77"/>
<polygon fill="none" stroke="black" points="264.89,-710.77 264.89,-747.77 441.89,-747.77 441.89,-710.77 264.89,-710.77"/>
<text text-anchor="start" x="275.89" y="-725.57" font-family="Helvetica Neue" font-size="14.00" fill="#333333">schedule_id (bigint)</text>
<polygon fill="#ffffff" stroke="transparent" points="264.89,-673.77 264.89,-710.77 441.89,-710.77 441.89,-673.77 264.89,-673.77"/>
<polygon fill="none" stroke="black" points="264.89,-673.77 264.89,-710.77 441.89,-710.77 441.89,-673.77 264.89,-673.77"/>
<text text-anchor="start" x="275.89" y="-688.57" font-family="Helvetica Neue" font-size="14.00" fill="#333333">sheet_id (bigint)</text>
<polygon fill="#ffffff" stroke="transparent" points="264.89,-636.77 264.89,-673.77 441.89,-673.77 441.89,-636.77 264.89,-636.77"/>
<polygon fill="none" stroke="black" points="264.89,-636.77 264.89,-673.77 441.89,-673.77 441.89,-636.77 264.89,-636.77"/>
<text text-anchor="start" x="275.89" y="-651.57" font-family="Helvetica Neue" font-size="14.00" fill="#333333">email (string)</text>
<polygon fill="#ffffff" stroke="transparent" points="264.89,-599.77 264.89,-636.77 441.89,-636.77 441.89,-599.77 264.89,-599.77"/>
<polygon fill="none" stroke="black" points="264.89,-599.77 264.89,-636.77 441.89,-636.77 441.89,-599.77 264.89,-599.77"/>
<text text-anchor="start" x="275.89" y="-614.57" font-family="Helvetica Neue" font-size="14.00" fill="#333333">name (string)</text>
<polygon fill="#ffffff" stroke="transparent" points="264.89,-562.77 264.89,-599.77 441.89,-599.77 441.89,-562.77 264.89,-562.77"/>
<polygon fill="none" stroke="black" points="264.89,-562.77 264.89,-599.77 441.89,-599.77 441.89,-562.77 264.89,-562.77"/>
<text text-anchor="start" x="275.89" y="-577.57" font-family="Helvetica Neue" font-size="14.00" fill="#333333">is_canceled (boolean)</text>
<polygon fill="#ffffff" stroke="transparent" points="264.89,-525.77 264.89,-562.77 441.89,-562.77 441.89,-525.77 264.89,-525.77"/>
<polygon fill="none" stroke="black" points="264.89,-525.77 264.89,-562.77 441.89,-562.77 441.89,-525.77 264.89,-525.77"/>
<text text-anchor="start" x="275.89" y="-540.57" font-family="Helvetica Neue" font-size="14.00" fill="#333333">created_at (datetime)</text>
<polygon fill="#ffffff" stroke="transparent" points="264.89,-488.77 264.89,-525.77 441.89,-525.77 441.89,-488.77 264.89,-488.77"/>
<polygon fill="none" stroke="black" points="264.89,-488.77 264.89,-525.77 441.89,-525.77 441.89,-488.77 264.89,-488.77"/>
<text text-anchor="start" x="275.89" y="-503.57" font-family="Helvetica Neue" font-size="14.00" fill="#333333">updated_at (datetime)</text>
</g>
<!-- appmodelsreservation&#45;&gt;appmodelsschedule -->
<g id="edge3" class="edge">
<title>appmodelsreservation:schedule_id&#45;&gt;appmodelsschedule:id</title>
<path fill="none" stroke="#f77f00" stroke-width="1.8" d="M453.86,-701.74C476.25,-649.33 523.67,-538.29 540.33,-499.29"/>
<polygon fill="#f77f00" stroke="#f77f00" stroke-width="1.8" points="453.67,-702.18 429.47,-724.47 447.78,-715.98 441.89,-729.77 441.89,-729.77 441.89,-729.77 447.78,-715.98 454.3,-735.07 453.67,-702.18 453.67,-702.18"/>
<polygon fill="#f77f00" stroke="#f77f00" stroke-width="1.8" points="531.3,-482.25 558.89,-494.04 556.53,-499.55 528.94,-487.77 531.3,-482.25"/>
<polyline fill="none" stroke="#f77f00" stroke-width="1.8" points="546.27,-485.39 540.38,-499.18 "/>
<text text-anchor="middle" x="494.6" y="-604.31" font-family="Helvetica Neue" font-size="14.00"> </text>
<text text-anchor="middle" x="532.1" y="-619.31" font-family="Helvetica Neue" font-size="14.00">BelongsTo</text>
<text text-anchor="middle" x="532.1" y="-604.31" font-family="Helvetica Neue" font-size="14.00">schedule</text>
</g>
<!-- appmodelssheet -->
<g id="node5" class="node">
<title>appmodelssheet</title>
<polygon fill="none" stroke="black" points="143,-484.89 0,-484.89 0,-299.89 143,-299.89 143,-484.89"/>
<polygon fill="#d3d3d3" stroke="transparent" points="0.5,-447.39 0.5,-484.39 143.5,-484.39 143.5,-447.39 0.5,-447.39"/>
<polygon fill="none" stroke="black" points="0.5,-447.39 0.5,-484.39 143.5,-484.39 143.5,-447.39 0.5,-447.39"/>
<text text-anchor="start" x="52" y="-462.19" font-family="Helvetica Neue" font-size="14.00" fill="#333333">Sheet</text>
<polygon fill="#ffffff" stroke="transparent" points="0.5,-410.39 0.5,-447.39 143.5,-447.39 143.5,-410.39 0.5,-410.39"/>
<polygon fill="none" stroke="black" points="0.5,-410.39 0.5,-447.39 143.5,-447.39 143.5,-410.39 0.5,-410.39"/>
<text text-anchor="start" x="11.5" y="-425.19" font-family="Helvetica Neue" font-size="14.00" fill="#333333">id (bigint)</text>
<polygon fill="#ffffff" stroke="transparent" points="0.5,-373.39 0.5,-410.39 143.5,-410.39 143.5,-373.39 0.5,-373.39"/>
<polygon fill="none" stroke="black" points="0.5,-373.39 0.5,-410.39 143.5,-410.39 143.5,-373.39 0.5,-373.39"/>
<text text-anchor="start" x="11.5" y="-388.19" font-family="Helvetica Neue" font-size="14.00" fill="#333333">column (integer)</text>
<polygon fill="#ffffff" stroke="transparent" points="0.5,-336.39 0.5,-373.39 143.5,-373.39 143.5,-336.39 0.5,-336.39"/>
<polygon fill="none" stroke="black" points="0.5,-336.39 0.5,-373.39 143.5,-373.39 143.5,-336.39 0.5,-336.39"/>
<text text-anchor="start" x="11.5" y="-351.19" font-family="Helvetica Neue" font-size="14.00" fill="#333333">row (string)</text>
<polygon fill="#ffffff" stroke="transparent" points="0.5,-299.39 0.5,-336.39 143.5,-336.39 143.5,-299.39 0.5,-299.39"/>
<polygon fill="none" stroke="black" points="0.5,-299.39 0.5,-336.39 143.5,-336.39 143.5,-299.39 0.5,-299.39"/>
<text text-anchor="start" x="11.5" y="-314.19" font-family="Helvetica Neue" font-size="14.00" fill="#333333">screen_id (bigint)</text>
</g>
<!-- appmodelsreservation&#45;&gt;appmodelssheet -->
<g id="edge4" class="edge">
<title>appmodelsreservation:sheet_id&#45;&gt;appmodelssheet:id</title>
<path fill="none" stroke="#f77f00" stroke-width="1.8" d="M252.12,-665.08C226.38,-609.21 169.03,-484.78 149.87,-443.21"/>
<polygon fill="#f77f00" stroke="#f77f00" stroke-width="1.8" points="252.33,-665.53 252.63,-698.42 258.61,-679.15 264.89,-692.77 264.89,-692.77 264.89,-692.77 258.61,-679.15 277.15,-687.12 252.33,-665.53 252.33,-665.53"/>
<polygon fill="#f77f00" stroke="#f77f00" stroke-width="1.8" points="131.13,-438.39 158.38,-425.83 160.89,-431.28 133.64,-443.84 131.13,-438.39"/>
<polyline fill="none" stroke="#f77f00" stroke-width="1.8" points="143.5,-429.39 149.78,-443.01 "/>
<text text-anchor="middle" x="198.5" y="-557.95" font-family="Helvetica Neue" font-size="14.00"> </text>
<text text-anchor="middle" x="166" y="-542.95" font-family="Helvetica Neue" font-size="14.00">BelongsTo</text>
<text text-anchor="middle" x="166" y="-527.95" font-family="Helvetica Neue" font-size="14.00">sheet</text>
</g>
<!-- appmodelssheet&#45;&gt;appmodelsreservation -->
<g id="edge7" class="edge">
<title>appmodelssheet:id&#45;&gt;appmodelsreservation:sheet_id</title>
</g>
<!-- appmodelssheet&#45;&gt;appmodelsscreen -->
<g id="edge8" class="edge">
<title>appmodelssheet:screen_id&#45;&gt;appmodelsscreen:id</title>
<path fill="none" stroke="#f77f00" stroke-width="1.8" d="M162.47,-293.89C188.74,-261.34 235.23,-203.75 255.26,-178.93"/>
<polygon fill="#f77f00" stroke="#f77f00" stroke-width="1.8" points="162.34,-294.04 133,-308.91 152.92,-305.71 143.5,-317.39 143.5,-317.39 143.5,-317.39 152.92,-305.71 154,-325.87 162.34,-294.04 162.34,-294.04"/>
<polygon fill="#f77f00" stroke="#f77f00" stroke-width="1.8" points="251.33,-159.91 274.67,-178.76 270.91,-183.42 247.56,-164.58 251.33,-159.91"/>
<polyline fill="none" stroke="#f77f00" stroke-width="1.8" points="264.89,-167 255.46,-178.67 "/>
<text text-anchor="middle" x="206.36" y="-240.21" font-family="Helvetica Neue" font-size="14.00"> </text>
<text text-anchor="middle" x="173.86" y="-225.21" font-family="Helvetica Neue" font-size="14.00">BelongsTo</text>
<text text-anchor="middle" x="173.86" y="-210.21" font-family="Helvetica Neue" font-size="14.00">screen</text>
</g>
</g>
</svg>
